PathFileType	4	(X/Y/Z)	/Users/itak/Documents/Research/Walk-IL/dataset/trc/00373_00011.trc
DataRate	CameraRate	NumFrames	NumMarkers	Units	OrigDataRate	OrigDataStartFrame	OrigNumFrames
100.000000	100.000000	4	54	mm	100.000000	274	548
Frame#	Time	RPSI			LPSI			L3			STRN			T10			C7			CLAV			RBAK			LBAK			LSHO			LUPA			LAEL			LAOL			LWTS			LWPS			LFRA			LHPS			LHTS			RSHO			RUPA			RAEL			RAOL			RWTS			RWPS			RFRA			RIFD			RHTS			RHPS			RBHD			LFHD			RFHD			LBHD			LHIP			RHIP			RASI			LASI			LKNE			LTHI			LANK			LTIP			LTOE			LMT1			LMT5			LHEE			RKNE			RTHI			RANK			RTIP			RTOE			RMT1			RMT5			RHEE			LIFD			*53			
		X1	Y1	Z1	X2	Y2	Z2	X3	Y3	Z3	X4	Y4	Z4	X5	Y5	Z5	X6	Y6	Z6	X7	Y7	Z7	X8	Y8	Z8	X9	Y9	Z9	X10	Y10	Z10	X11	Y11	Z11	X12	Y12	Z12	X13	Y13	Z13	X14	Y14	Z14	X15	Y15	Z15	X16	Y16	Z16	X17	Y17	Z17	X18	Y18	Z18	X19	Y19	Z19	X20	Y20	Z20	X21	Y21	Z21	X22	Y22	Z22	X23	Y23	Z23	X24	Y24	Z24	X25	Y25	Z25	X26	Y26	Z26	X27	Y27	Z27	X28	Y28	Z28	X29	Y29	Z29	X30	Y30	Z30	X31	Y31	Z31	X32	Y32	Z32	X33	Y33	Z33	X34	Y34	Z34	X35	Y35	Z35	X36	Y36	Z36	X37	Y37	Z37	X38	Y38	Z38	X39	Y39	Z39	X40	Y40	Z40	X41	Y41	Z41	X42	Y42	Z42	X43	Y43	Z43	X44	Y44	Z44	X45	Y45	Z45	X46	Y46	Z46	X47	Y47	Z47	X48	Y48	Z48	X49	Y49	Z49	X50	Y50	Z50	X51	Y51	Z51	X52	Y52	Z52	X53	Y53	Z53	X54	Y54	Z54	

275	2.74	-427.2364807128906	937.8343505859375	37.9652214050293	-339.6753234863281	936.5921020507812	-57.79983520507812	-397.3005676269531	995.0336303710938	-3.738202333450317	-223.7544555664062	1173.087280273438	164.6669769287109	-402.2637023925781	1114.9375	-3.433581590652466	-361.0365600585938	1361.802001953125	31.52955436706543	-252.4807586669922	1300.476806640625	139.2372741699219	-442.0691833496094	1221.546020507812	40.62106704711914	-302.0466918945312	1329.283447265625	-51.74576187133789	-201.1108703613281	1345.021850585938	-35.90340805053711	-178.353759765625	1228.749145507812	-109.0528717041016	-175.0561370849609	1025.911376953125	-131.2105407714844	-259.3296203613281	1017.234558105469	-124.5749740600586	-134.6702117919922	774.5485229492188	-62.29348373413086	-137.9203796386719	768.4893798828125	-131.2519378662109	-164.6470184326172	920.5697021484375	-139.0972137451172	-151.4467468261719	699.1912231445312	-133.4298400878906	-125.9792022705078	693.5175170898438	-74.171142578125	-433.0880432128906	1342.923217773438	186.1302185058594	-484.1811828613281	1277.824340820312	221.8148651123047	-505.3143615722656	1014.355529785156	276.0398254394531	-479.8905029296875	999.1383056640625	186.3372192382812	-327.9868774414062	843.497314453125	336.1462707519531	-386.0074462890625	811.3795776367188	374.9835815429688	-476.6519165039062	955.020263671875	308.0954284667969	-257.4623718261719	692.5527954101562	383.4880981445312	-278.4380493164062	761.6893310546875	383.1882629394531	-343.7075500488281	741.0917358398438	397.5230712890625	-371.8493347167969	1569.203002929688	147.068603515625	-168.3973388671875	1553.627319335938	186.5117492675781	-247.0135955810547	1550.24658203125	250.5151214599609	-278.7332458496094	1574.38623046875	37.59711456298828	-203.0455780029297	883.3583374023438	-70.27584838867188	-445.1788940429688	879.3977661132812	169.6601104736328	-341.2228393554688	902.3079833984375	216.2821502685547	-165.5747222900391	912.9774780273438	56.1658821105957	-44.43702697753906	464.7565307617188	69.55374145507812	-80.5821533203125	590.353515625	19.37811279296875	21.17329406738281	40.17889022827148	94.17626953125	-1.515089988708496	249.9373321533203	74.62186431884766	107.561408996582	93.24446868896484	282.2588500976562	34.74835968017578	62.06722640991211	263.4046936035156	111.1043243408203	66.15287017822266	178.2303771972656	-50.55907440185547	28.4431266784668	116.4692153930664	-441.625244140625	423.5856018066406	108.1215209960938	-407.8163757324219	668.6566162109375	190.5684509277344	-579.6980590820312	67.00334930419922	-63.43020629882812	-456.04931640625	305.9598999023438	65.8382568359375	-388.5364685058594	43.25606536865234	-27.74060821533203	-420.0498046875	43.35060501098633	-88.36623382568359	-501.8262634277344	40.66584396362305	-1.388706564903259	-602.6946411132812	84.40488433837891	-126.8964004516602	-151.1364288330078	610.6672973632812	-67.53734588623047	nan	nan	nan	
276	2.75	-417.4247741699219	936.9459838867188	41.06742858886719	-328.736328125	935.9619140625	-53.70904922485352	-387.0097351074219	994.0130615234375	-0.3870965838432312	-215.7130432128906	1172.571044921875	169.7153167724609	-392.4298400878906	1114.004516601562	-0.6449534296989441	-351.192626953125	1360.997680664062	34.48236846923828	-244.1427612304688	1299.931396484375	143.7288665771484	-432.2020874023438	1220.68017578125	42.70066452026367	-291.2322387695312	1328.365356445312	-48.00022506713867	-190.3952789306641	1344.134887695312	-30.84371376037598	-166.6823120117188	1227.662353515625	-103.4130859375	-163.0002593994141	1024.692749023438	-124.9122924804688	-247.4980316162109	1016.089599609375	-119.5130615234375	-124.0044860839844	773.5192260742188	-54.56372833251953	-126.0394287109375	767.2914428710938	-123.5515594482422	-152.5847930908203	919.357666015625	-132.2830810546875	-139.5525817871094	697.9803466796875	-125.7818374633789	-115.206298828125	692.4761962890625	-65.95803833007812	-425.4326477050781	1342.23974609375	188.0783233642578	-477.1477355957031	1277.193603515625	222.9549255371094	-499.6710205078125	1013.680236816406	275.8936157226562	-472.617431640625	998.6133422851562	186.6260833740234	-327.2795715332031	838.7862548828125	338.9726257324219	-387.0479431152344	807.759521484375	376.2323608398438	-472.8366088867188	953.6539916992188	308.2416076660156	-261.6416625976562	685.8925170898438	387.1615905761719	-280.9647216796875	755.5432739257812	386.7229919433594	-346.9784545898438	736.4042358398438	399.2518615722656	-363.5652160644531	1568.6025390625	150.3329315185547	-160.6016845703125	1552.906982421875	192.1471252441406	-239.9913330078125	1549.382446289062	255.1207885742188	-269.1900634765625	1574.047485351562	42.00600051879883	-191.8809356689453	882.7297973632812	-64.33594512939453	-436.9988098144531	878.2166748046875	172.4442291259766	-333.7709045410156	901.1644897460938	220.8625946044922	-156.3274841308594	912.6189575195312	62.64875793457031	-35.45487213134766	464.9783630371094	79.80625152587891	-71.44622802734375	590.1549682617188	28.64529800415039	22.78853034973145	40.059814453125	96.37837219238281	4.263882637023926	249.0322875976562	82.83143615722656	106.1314468383789	84.2430419921875	288.4922485351562	33.28139877319336	54.74501037597656	267.0227966308594	111.0560302734375	61.14432144165039	183.5151214599609	-49.51108551025391	28.69989204406738	117.1424102783203	-435.1774597167969	423.3570251464844	111.343994140625	-400.7178955078125	667.7552490234375	194.0213928222656	-578.6222534179688	69.91434478759766	-62.84678268432617	-451.3587341308594	305.9154052734375	68.45328521728516	-388.2820739746094	43.3438720703125	-27.48899078369141	-419.541259765625	43.93413925170898	-88.01760101318359	-501.3337097167969	41.05087280273438	-1.067375779151917	-601.25	88.69153594970703	-126.1211547851562	-140.4540100097656	609.6880493164062	-59.6200065612793	nan	nan	nan	
277	2.76	-407.5178833007812	936.2728271484375	44.42307281494141	-317.7393188476562	935.677978515625	-49.42424011230469	-376.5230712890625	993.2362060546875	3.274624586105347	-207.6156921386719	1172.391723632812	174.8324890136719	-382.4733581542969	1113.346801757812	2.231204271316528	-341.2684020996094	1360.481079101562	37.47673034667969	-235.7201843261719	1299.71484375	148.2687377929688	-422.1485595703125	1220.079833984375	44.82529449462891	-280.2700805664062	1327.74169921875	-44.19262313842773	-179.5682525634766	1343.519409179688	-25.6662425994873	-154.8272094726562	1226.840576171875	-97.60226440429688	-150.6741638183594	1023.728088378906	-118.4475021362305	-235.3363342285156	1015.179504394531	-114.3127288818359	-113.1215896606445	772.7909545898438	-46.59202194213867	-113.8868560791016	766.3636474609375	-115.6038665771484	-140.2770690917969	918.4002075195312	-125.2846374511719	-127.3362274169922	697.0418090820312	-117.857551574707	-104.1619644165039	691.7467651367188	-57.47431564331055	-417.7259521484375	1341.83544921875	190.0231475830078	-470.0809631347656	1276.824584960938	224.0339202880859	-493.9403991699219	1013.252380371094	275.5177917480469	-465.1452941894531	998.34521484375	186.7647705078125	-326.9936828613281	834.1593627929688	341.5887451171875	-388.5156555175781	804.3497314453125	377.1065979003906	-469.1030578613281	952.5333862304688	308.1050109863281	-266.6095581054688	679.3502197265625	390.509521484375	-284.1630859375	749.4971923828125	389.9813842773438	-350.9002075195312	731.9114379882812	400.54248046875	-355.190185546875	1568.353515625	153.6235046386719	-152.7769775390625	1552.4619140625	197.8778839111328	-232.960693359375	1548.7939453125	259.7648315429688	-259.5243835449219	1574.0634765625	46.49539566040039	-180.5935974121094	882.4448852539062	-58.27190017700195	-428.634765625	877.17578125	175.4629669189453	-326.1560974121094	900.1727905273438	225.6342315673828	-146.9554138183594	912.5457763671875	69.24732208251953	-26.69631576538086	465.3832092285156	89.91912841796875	-62.656005859375	589.9606323242188	37.84342193603516	24.39493942260742	40.30364608764648	98.24919128417969	10.08267879486084	248.5828857421875	90.77908325195312	104.9474945068359	75.67739105224609	293.9522705078125	32.02974319458008	48.10383224487305	270.0422058105469	111.0983657836914	56.54435729980469	188.1373748779297	-48.40266799926758	29.42143440246582	117.6268768310547	-428.2910766601562	423.2660827636719	114.958869934082	-393.3033752441406	667.0123901367188	197.7430877685547	-577.3360595703125	73.24102020263672	-62.02770614624023	-446.3661804199219	306.0647888183594	71.4793701171875	-388.0457153320312	43.45381164550781	-27.22153091430664	-418.9551696777344	44.58871459960938	-87.57178497314453	-500.7324523925781	41.41119384765625	-0.6646755933761597	-599.51806640625	93.55705261230469	-125.0245590209961	-129.5179138183594	609.0076904296875	-51.44296646118164	nan	nan	nan	
278	2.77	-397.5890197753906	935.81396484375	48.01841354370117	-306.7573852539062	935.732421875	-44.9532470703125	-365.9342346191406	992.7578125	7.204638957977295	-199.47900390625	1172.546630859375	180.0255889892578	-372.392822265625	1113.01806640625	5.214346408843994	-331.2906799316406	1360.284057617188	40.54118347167969	-227.2288055419922	1299.826171875	152.8721008300781	-411.9492492675781	1219.791381835938	47.02172470092773	-269.1689453125	1327.466674804688	-40.3117790222168	-168.6577606201172	1343.206787109375	-20.35107803344727	-142.8034210205078	1226.320434570312	-91.59349060058594	-138.0784912109375	1023.059143066406	-111.7844085693359	-222.8424377441406	1014.542907714844	-108.9724273681641	-102.0272216796875	772.3916015625	-38.38816833496094	-101.4738388061523	765.7445068359375	-107.421142578125	-127.7184371948242	917.7398071289062	-118.0802688598633	-114.8265686035156	696.413330078125	-109.6693649291992	-92.86141967773438	691.3482055664062	-48.75881576538086	-409.9533386230469	1341.731201171875	192.0042114257812	-462.9570007324219	1276.74658203125	225.1060638427734	-488.1278076171875	1013.108642578125	274.9081726074219	-457.4636840820312	998.3746337890625	186.7671051025391	-327.1368103027344	829.69189453125	343.9826354980469	-390.41015625	801.2153930664062	377.5346984863281	-465.4415893554688	951.70263671875	307.6701354980469	-272.3395385742188	673.0441284179688	393.4942932128906	-288.0379333496094	743.6531982421875	392.931396484375	-355.4371948242188	727.7017211914062	401.3404235839844	-346.7291870117188	1568.45849609375	156.9485626220703	-144.931640625	1552.294555664062	203.6987915039062	-225.9205017089844	1548.4951171875	264.453857421875	-249.7523651123047	1574.418823242188	51.06521606445312	-169.2511138916016	882.5516967773438	-52.10404205322266	-420.1168518066406	876.3118286132812	178.7230834960938	-318.3943786621094	899.39794921875	230.5510711669922	-137.484375	912.8048706054688	75.9241943359375	-18.07957649230957	465.9998474121094	99.86267852783203	-54.07379913330078	589.9046020507812	46.97654342651367	25.94015884399414	40.78533172607422	99.83988189697266	15.96919536590576	248.5455322265625	98.35952758789062	104.2282104492188	67.83954620361328	298.4690856933594	31.17502212524414	42.35186386108398	272.4672546386719	111.3283004760742	52.48123550415039	191.9428558349609	-47.27345275878906	30.45138359069824	118.0585632324219	-420.8601989746094	423.2899475097656	119.0597076416016	-385.5483703613281	666.458740234375	201.7741088867188	-575.7548217773438	77.02525329589844	-60.95879364013672	-440.9993286132812	306.4281616210938	74.99002075195312	-387.8346862792969	43.57537841796875	-26.94347190856934	-418.2606506347656	45.30951309204102	-87.037353515625	-500.0129089355469	41.75513458251953	-0.1773006916046143	-597.3750610351562	99.05466461181641	-123.5827789306641	-118.3428039550781	608.6533813476562	-43.02636337280273	nan	nan	nan	
